<svg width="126" height="147" viewBox="0 0 126 147" fill="none" xmlns="http://www.w3.org/2000/svg">
<g clip-path="url(#clip0_77_3623)" filter="url(#filter0_i_77_3623)">
<path d="M63.1002 48.2C62.5002 41.38 68.6002 40.21 72.5702 37.66C75.6402 35.69 80.5502 33.72 83.0502 37.31C85.8202 41.29 87.6002 46.55 88.0402 51.42C89.2202 64.37 84.6302 75.94 77.3802 86.48C69.8602 97.4 61.1602 107.03 49.1702 113.43C46.2502 114.99 44.1502 118.51 42.2702 121.5C39.3602 126.13 37.1302 131.2 34.2602 135.86C33.0702 137.79 30.9802 139.17 29.3002 140.8C28.6802 140.54 28.0702 140.28 27.4502 140.02C27.6902 138.02 27.4402 135.78 28.2702 134.07C31.3402 127.84 34.6302 121.71 38.1402 115.71C39.4502 113.47 41.2802 111.31 43.3702 109.79C49.5302 105.31 56.1202 101.42 62.1502 96.79C64.5702 94.93 65.9202 91.72 67.8602 89.2C74.4902 80.63 80.3702 71.62 81.4702 60.55C81.9502 55.67 81.3802 50.65 80.9102 45.74C80.5302 41.69 78.0702 41.3 74.9402 43.23C73.5302 44.1 72.3002 45.34 70.8002 45.98C69.0002 46.75 67.0102 47.07 65.6902 47.43C64.6502 47.96 64.0202 48.29 63.3802 48.61C63.3002 48.46 63.2102 48.31 63.1102 48.18L63.1002 48.2Z" fill="#72ECA3"/>
<path d="M35.18 21.2101C37.69 18.2101 39.68 14.3501 42.84 12.4101C48.45 8.9701 54.7 6.4901 60.88 4.1201C62.25 3.6001 64.44 5.2201 66.25 5.8501C64.94 7.2201 63.88 9.3201 62.29 9.8401C50.32 13.7701 39.94 20.1801 31.69 29.6301C17.74 45.6201 10.86 58.6101 6.65001 80.1001C6.02001 83.3301 6.72001 86.8101 6.11001 90.0401C5.79001 91.7301 3.95001 93.1301 2.79001 94.6601C1.87001 93.1001 0.250008 91.5801 0.140008 89.9601C-0.689992 77.4901 2.42001 65.5801 8.18001 54.8401C13.86 44.2501 21.17 34.5001 28.15 24.6501C29.43 22.8501 32.53 22.3401 34.79 21.2301L34.97 21.1001L35.19 21.2101H35.18Z" fill="#72ECA3"/>
<path d="M83.64 16.28C96.4 17.42 102.81 22.33 104.86 34.27C107.8 51.36 106.11 68.05 99.24 84.08C98.78 85.15 98.42 86.45 97.6 87.12C96.4 88.1 94.81 88.6 93.39 89.3C93.03 87.62 91.85 85.55 92.44 84.33C98.34 72.1 100.43 59.18 99.99 45.77C99.87 42.13 99.56 38.46 98.92 34.88C97.42 26.5 90.85 21.51 82.16 23.46C75.17 25.02 68.56 28.35 61.83 31.01C60.47 31.55 59.43 33 58.06 33.37C56.73 33.73 55.17 33.25 53.71 33.13C54.01 31.66 53.8 29.56 54.71 28.84C57.77 26.39 60.99 23.84 64.58 22.41C70.76 19.94 77.27 18.28 83.64 16.29V16.28Z" fill="#72ECA3"/>
<path d="M20.13 105C20.13 95.5901 19.15 86.0501 20.37 76.7901C22.09 63.7801 29.31 53.0901 38.38 43.8001C39.39 42.7701 41.63 42.9501 43.29 42.5701C43.04 44.1201 43.25 45.9701 42.46 47.1801C37.89 54.2001 32.01 60.2401 29.04 68.4601C25.38 78.6001 24.09 88.7701 25.92 99.2801C27.4 107.78 25.69 115.42 20.84 122.41C16.73 128.33 9.14003 128.3 5.75003 121.98C3.76003 118.27 2.90003 113.9 1.99003 109.72C1.73003 108.54 3.12003 107.01 3.75003 105.64C5.00003 106.66 6.77003 107.43 7.40003 108.75C8.68003 111.42 9.16003 114.46 10.31 117.21C11.98 121.21 14.55 121.54 16.58 117.69C18.61 113.85 19.68 109.5 21.17 105.38C20.82 105.26 20.47 105.13 20.11 105.01L20.13 105Z" fill="#72ECA3"/>
<path d="M63.0999 48.2C63.1999 48.34 63.2899 48.48 63.3699 48.63C62.0199 51.37 61.1499 54.52 59.2499 56.79C52.6999 64.58 46.0099 72.2 44.0399 82.6399C43.7199 84.3299 43.7599 86.08 43.6399 87.8C44.1799 88.17 44.7199 88.5499 45.2499 88.9199C47.6099 86.4999 50.1699 84.24 52.2699 81.61C55.8899 77.07 59.1099 72.1999 62.7799 67.6999C63.5299 66.7799 65.5199 66.8699 66.9299 66.4899C67.1699 67.9599 68.1499 70.0099 67.5299 70.8099C61.5499 78.4399 55.5699 86.11 48.9399 93.16C47.2899 94.91 42.9299 95.52 40.4299 94.72C36.4299 93.44 36.9399 89.16 37.2699 85.66C38.3999 73.65 44.6399 64.14 52.3299 55.38C54.2999 53.14 56.2099 50.79 58.5199 48.97C59.5799 48.13 61.5499 48.43 63.0999 48.22V48.2Z" fill="#72ECA3"/>
<path d="M56.7402 146.59C55.3902 145.4 53.2802 144.17 53.4402 143.54C53.8102 142.1 55.0602 140.3 56.3902 139.78C61.9002 137.61 67.6802 136.11 73.1702 133.91C91.3602 126.62 102.56 112.64 109.87 95.0201C111.16 91.9201 112.53 88.8301 114.14 85.8901C114.5 85.2301 116.72 84.7201 116.88 84.9501C117.68 86.1401 118.89 87.9101 118.5 88.9201C115.93 95.5701 113.68 102.48 110.03 108.53C102.34 121.26 92.2802 131.92 78.4802 138.23C71.5902 141.38 64.3302 143.7 56.7402 146.59Z" fill="#72ECA3"/>
<path d="M125.3 46.7501C125.3 49.4101 125.7 52.1601 125.16 54.7101C124.78 56.4901 123.12 58.0001 122.03 59.6301C121.05 58.0101 119.34 56.4401 119.2 54.7501C118.59 47.3101 119.36 39.6501 117.91 32.4101C114.38 14.7001 109 8.07008 92.6602 6.53008C91.0102 6.37008 89.2202 6.41008 87.7602 5.76008C86.4602 5.19008 85.5302 3.80008 84.4302 2.77008C85.6302 1.80008 87.0102 -0.16992 88.0002 0.0100799C94.2902 1.15008 100.89 1.87008 106.66 4.39008C121.74 10.9601 123.18 25.4401 125.26 39.2601C125.63 41.7001 125.31 44.2501 125.31 46.7501C125.31 46.7501 125.3 46.7501 125.29 46.7501H125.3Z" fill="#72ECA3"/>
<path d="M90.3501 103.09C86.3701 107.23 84.4001 113.5 77.2401 115.18C74.7301 115.77 72.9701 119.29 70.6601 121.21C69.4201 122.24 67.7601 123.22 66.2201 123.34C64.6501 123.46 62.9901 122.51 61.3701 122.03C62.1601 120.74 62.6501 119.01 63.7901 118.24C67.2401 115.93 71.1901 114.33 74.4601 111.82C77.8001 109.27 81.0601 106.32 83.4501 102.9C85.9901 99.27 87.7301 98.85 90.3401 103.07L90.3501 103.09Z" fill="#72ECA3"/>
<path d="M35.1798 21.2101L34.9598 21.1001L34.7798 21.2301L35.1798 21.2101Z" fill="#72ECA3"/>
</g>
<defs>
<filter id="filter0_i_77_3623" x="0" y="0" width="125.44" height="150.59" filterUnits="userSpaceOnUse" color-interpolation-filters="sRGB">
<feFlood flood-opacity="0" result="BackgroundImageFix"/>
<feBlend mode="normal" in="SourceGraphic" in2="BackgroundImageFix" result="shape"/>
<feColorMatrix in="SourceAlpha" type="matrix" values="0 0 0 0 0 0 0 0 0 0 0 0 0 0 0 0 0 0 127 0" result="hardAlpha"/>
<feOffset dy="4"/>
<feGaussianBlur stdDeviation="2"/>
<feComposite in2="hardAlpha" operator="arithmetic" k2="-1" k3="1"/>
<feColorMatrix type="matrix" values="0 0 0 0 0 0 0 0 0 0 0 0 0 0 0 0 0 0 0.25 0"/>
<feBlend mode="normal" in2="shape" result="effect1_innerShadow_77_3623"/>
</filter>
<clipPath id="clip0_77_3623">
<rect width="125.44" height="146.59" fill="white"/>
</clipPath>
</defs>
</svg>
